inDegrees=yes
name=ik_lifting_orientations
DataType=double
version=3
OpenSimVersion=4.5-2024-01-10-34fd6af
endheader
time	pelvis_tilt	pelvis_list	pelvis_rotation	pelvis_tx	pelvis_ty	pelvis_tz	hip_flexion_r	hip_adduction_r	hip_rotation_r	knee_angle_r	knee_angle_r_beta	ankle_angle_r	subtalar_angle_r	mtp_angle_r	hip_flexion_l	hip_adduction_l	hip_rotation_l	knee_angle_l	knee_angle_l_beta	ankle_angle_l	subtalar_angle_l	mtp_angle_l	lumbar_extension	lumbar_bending	lumbar_rotation	arm_flex_r	arm_add_r	arm_rot_r	elbow_flex_r	pro_sup_r	wrist_flex_r	wrist_dev_r	arm_flex_l	arm_add_l	arm_rot_l	elbow_flex_l	pro_sup_l	wrist_flex_l	wrist_dev_l
1.23	-8.832947781999787	30.27241659137162	27.44150980024016	0	0.9399999998679526	0	45.31433303690448	-10.33508991149826	0	60.00062412661813	1.047208444261033	-5.119832594565897	0	0	45.31433303690448	-10.33508991149826	0	60.00062412661813	1.047208444261033	-5.119832594565897	0	0	-2.512568807066797	-29.98557593836767	-89.95767301328279	-31.85694159719961	-35.64784407055884	-42.32613605011395	118.5934032679829	1.357477415314432	0	0	0	-12.47152053625612	0	88.66918586149636	1.357477415314432	0	0
1.24	-9.170374759348357	29.25015660334579	28.10016384598873	0	0.9399999998679526	0	45.31034870851768	-10.32200214253329	0	60.00061889068271	1.047208352876721	-5.113914904297446	0	0	45.31034870851768	-10.32200214253329	0	60.00061889068271	1.047208352876721	-5.113914904297446	0	0	-1.120432760827962	-29.27443735289079	-89.97191857555008	-31.11812270968997	-37.39474987200582	-42.75384489121053	121.9515067504726	1.345100215611046	0	0	0	-12.48895498773067	0	88.68131828059687	1.345100215611046	0	0
1.25	-9.471269099760526	28.20019585304448	29.01472024423484	0	0.9399999998679526	0	45.30645810643936	-10.30946097202511	0	60.00061378798745	1.047208263817888	-5.108293232215436	0	0	45.30645810643936	-10.30946097202511	0	60.00061378798745	1.047208263817888	-5.108293232215436	0	0	-0.5112673719460367	-28.6377510317025	-89.9780807307647	-30.70910875510156	-38.48679587732971	-43.53541148339623	125.7062022332188	1.332993707539016	0	0	0	-12.50602129362501	0	88.69318536241735	1.332993707539016	0	0
1.26	-9.588209799728551	27.45841071526564	29.6311888445945	0	0.9399999998679526	0	45.30325949804512	-10.29912527336616	0	60.00060968495495	1.047208192206462	-5.103680841689067	0	0	45.30325949804512	-10.29912527336616	0	60.00060968495495	1.047208192206462	-5.103680841689067	0	0	-0.1645283514788771	-28.14742160397222	-89.98066260787886	-32.21767981828193	-38.20858745023705	-45.36027763564147	131.5308668863907	1.323089563290173	0	0	0	-12.5199153019018	0	88.70289363450102	1.323089563290173	0	0
1.27	-9.777392505167086	27.14733390792343	29.70518141376323	0	0.9399999998679526	0	45.30021980566115	-10.28919988275981	0	60.00060590336404	1.047208126205249	-5.099270085751336	0	0	45.30021980566115	-10.28919988275981	0	60.00060590336404	1.047208126205249	-5.099270085751336	0	0	0.2239443546741222	-28.25846146310796	-89.9831406895692	-33.20917264087674	-37.95921622839091	-46.27209740043218	136.9982645192537	1.313757344131661	0	0	0	-12.53290163430832	0	88.71204129005541	1.313757344131661	0	0
1.28	-10.0249781789231	26.81507148706	30.01895208967754	0	0.9399999998679526	0	45.29705211394305	-10.27987780424439	0	60.0006016746315	1.047208052399943	-5.095232030097796	0	0	45.29705211394305	-10.27987780424439	0	60.0006016746315	1.047208052399943	-5.095232030097796	0	0	0.696603393713226	-28.27370393498381	-89.98464676328136	-31.6418561932163	-39.26237876827346	-45.50362098185532	141.6986825398077	1.303762140233069	0	0	0	-12.54712468797459	0	88.72183882759273	1.303762140233069	0	0
1.29	-10.14312917148172	26.59581122024863	30.33133430606284	0	0.9399999998679526	0	45.29383206881203	-10.27058904602714	0	60.00059736978871	1.047207977266263	-5.091240299415879	0	0	45.29383206881203	-10.27058904602714	0	60.00059736978871	1.047207977266263	-5.091240299415879	0	0	0.9244421710886325	-28.1724307656331	-89.9856008701868	-29.52862815820841	-40.50296126396619	-44.39057038193916	146.118989961458	1.293574574841607	0	0	0	-12.56164574413149	0	88.73182492355416	1.293574574841607	0	0
1.3	-10.28528845070991	26.12747663165386	30.58399291647394	0	0.9399999998679526	0	45.29048319749546	-10.26088753417941	0	60.0005929506979	1.047207900138578	-5.087074493071102	0	0	45.29048319749546	-10.26088753417941	0	60.0005929506979	1.047207900138578	-5.087074493071102	0	0	1.469565045117893	-27.95248288648641	-89.98682021664871	-27.46621583136295	-41.95555376908778	-43.17622985159717	146.8772354041313	1.283007132886664	0	0	0	-12.57667145154702	0	88.74218338299573	1.283007132886664	0	0
1.31	-10.39305991032159	25.40340704226226	31.14074785134484	0	0.9399999998679526	0	45.2878283810738	-10.25363204704907	0	60.000589329451	1.047207836935897	-5.084011115184617	0	0	45.2878283810738	-10.25363204704907	0	60.000589329451	1.047207836935897	-5.084011115184617	0	0	1.893612514406111	-27.48136711837142	-89.98794160688723	-25.50550488489543	-43.01000919312616	-41.84540084173629	150.4154109341582	1.27451742371218	0	0	0	-12.58886970474745	0	88.75050520255655	1.27451742371218	0	0
1.32	-10.41474677386049	24.86357792921766	31.38154386555144	0	0.9399999998679526	0	45.28467992310419	-10.24500107731071	0	60.00058513928288	1.047207763803667	-5.080380488838055	0	0	45.28467992310419	-10.24500107731071	0	60.00058513928288	1.047207763803667	-5.080380488838055	0	0	2.174305410806471	-27.12271230897967	-89.98860378343687	-22.89185452939788	-43.71426141498857	-40.06576105064318	151.9528260764737	1.264497731881028	0	0	0	-12.60319804183718	0	88.76032674749133	1.264497731881028	0	0
1.33	-10.55083025492829	24.21754910595229	31.95801587256611	0	0.9399999998679526	0	45.28170199822198	-10.2370720811112	0	60.00058113657111	1.047207693943167	-5.077076725902081	0	0	45.28170199822198	-10.2370720811112	0	60.00058113657111	1.047207693943167	-5.077076725902081	0	0	2.643525986160864	-26.72364238801253	-89.98945924532443	-20.35897025617892	-44.38535760141849	-38.54992086579023	152.7250467257165	1.254966783675598	0	0	0	-12.61688493683216	0	88.76966921585232	1.254966783675598	0	0
1.34	-10.6445718863953	23.75918139113776	32.3357526825415	0	0.9399999998679526	0	45.27933074298284	-10.23108974171833	0	60.00057786524792	1.047207636847807	-5.074622007579242	0	0	45.27933074298284	-10.23108974171833	0	60.00057786524792	1.047207636847807	-5.074622007579242	0	0	3.033685923591801	-26.43373052889153	-89.99001909523686	-17.46613629118377	-45.22226087535118	-36.58546501196571	153.7534938101753	1.247285588861884	0	0	0	-12.62801800018134	0	88.77719851349026	1.247285588861884	0	0
1.35	-10.79193280259254	23.32872291744638	32.83507941499148	0	0.9399999998679526	0	45.27693370964007	-10.22516786613078	0	60.0005745733074	1.047207579392606	-5.072215784195558	0	0	45.27693370964007	-10.22516786613078	0	60.0005745733074	1.047207579392606	-5.072215784195558	0	0	3.522421448957318	-26.15569281916959	-89.99052745574866	-14.28116824276604	-46.33513726124553	-34.08017625796933	156.0950390852566	1.239509182828213	0	0	0	-12.63929428675681	0	88.78482114013886	1.239509182828213	0	0
1.36	-10.78529180276709	22.92425964017319	33.0237759548228	0	0.9399999998679526	0	45.27448240069894	-10.21919401711015	0	60.00057120258683	1.047207520562434	-5.069800801674664	0	0	45.27448240069894	-10.21919401711015	0	60.00057120258683	1.047207520562434	-5.069800801674664	0	0	3.868432613076322	-25.80829293394457	-89.99085580002978	-10.75277289558833	-47.16931312421376	-30.93380939790942	158.5487709441104	1.23154011285178	0	0	0	-12.65086594151163	0	88.79263262133011	1.23154011285178	0	0
1.37	-10.79482783324772	22.47801093400002	33.32608299684014	0	0.9399999998679526	0	45.27170151377926	-10.21270364761812	0	60.0005672755718	1.047207452023092	-5.06720256115037	0	0	45.27170151377926	-10.21270364761812	0	60.0005672755718	1.047207452023092	-5.06720256115037	0	0	4.218856950593783	-25.40149243488803	-89.99116567633588	-6.862514190481035	-47.51792496617456	-27.80082248300612	158.605576609002	1.222396047365602	0	0	0	-12.66426414698619	0	88.80159586526381	1.222396047365602	0	0
1.38	-10.7816480083963	22.02386858296599	33.69132438656838	0	0.9399999998679526	0	45.27151327087209	-10.21218746611968	0	60.00056704409994	1.047207447983146	-5.066989755039325	0	0	45.27151327087209	-10.21218746611968	0	60.00056704409994	1.047207447983146	-5.066989755039325	0	0	4.459621768697373	-24.99073274987401	-89.99140035627207	-3.34155184109366	-47.86786725224278	-25.441992553881	157.8583074070071	1.221807187266092	0	0	0	-12.66509166948625	0	88.80217308003026	1.221807187266092	0	0
